<svg width="32" height="32" viewBox="0 0 32 32" fill="none" xmlns="http://www.w3.org/2000/svg">
<path d="M21.0777 20.4857L21.223 20.6258H21.4248H22.6628L31.2932 29.2735L29.2735 31.2932L20.6258 22.6628V21.4248V21.223L20.4857 21.0777L19.9917 20.5655L19.6639 20.2255L19.3058 20.5334C17.3072 22.2515 14.7139 23.285 11.8925 23.285C5.60033 23.285 0.5 18.1847 0.5 11.8925C0.5 5.60033 5.60033 0.5 11.8925 0.5C18.1847 0.5 23.285 5.60033 23.285 11.8925C23.285 14.7139 22.2515 17.3072 20.5334 19.3058L20.2255 19.6639L20.5655 19.9917L21.0777 20.4857ZM3.15923 11.8925C3.15923 16.7244 7.06062 20.6258 11.8925 20.6258C16.7244 20.6258 20.6258 16.7244 20.6258 11.8925C20.6258 7.06062 16.7244 3.15923 11.8925 3.15923C7.06062 3.15923 3.15923 7.06062 3.15923 11.8925Z" fill="black" stroke="black"/>
</svg>
